<svg xmlns="http://www.w3.org/2000/svg" width="928" height="200" viewBox="0 0 928 200"><rect width="928" height="200" rx="22" fill="#ffffff"/><rect x="10" y="8" width="292" height="184" rx="16" fill="#fbfdff" stroke="#dbe7f5"/><circle cx="41" cy="34" r="19" fill="#eaf3ff"/><text x="41" y="40" text-anchor="middle" font-family="Arial,Helvetica,sans-serif" font-size="16" font-weight="700" fill="#1769e0">01</text><text x="68" y="29" font-family="Arial,Helvetica,sans-serif" font-size="15" font-weight="700" fill="#10264b">Objectifs &amp; périmètre</text><text x="68" y="50" font-family="Arial,Helvetica,sans-serif" font-size="12.5" fill="#405a7d">Clarifier le besoin et les critères</text><text x="68" y="68" font-family="Arial,Helvetica,sans-serif" font-size="12.5" fill="#405a7d">de succès</text><rect x="32" y="82" width="248" height="88" rx="14" fill="#f2f7fd"/><circle stroke="#1769e0" stroke-width="2.4" fill="none" stroke-linecap="round" stroke-linejoin="round" cx="66" cy="123" r="17"/><circle stroke="#1769e0" stroke-width="2.4" fill="none" stroke-linecap="round" stroke-linejoin="round" cx="66" cy="123" r="10"/><circle fill="#1769e0" cx="66" cy="123" r="3"/><path stroke="#1769e0" stroke-width="2.4" fill="none" stroke-linecap="round" stroke-linejoin="round" d="M78,110 l8,-6 M80,107 h6 v6"/><rect x="110" y="104" width="152" height="8" rx="4" fill="#dceafb"/><rect x="110" y="124" width="132" height="8" rx="4" fill="#c9def7"/><rect x="110" y="144" width="114" height="8" rx="4" fill="#a9cdf5"/><rect x="313" y="8" width="292" height="184" rx="16" fill="#fbfdff" stroke="#dbe7f5"/><circle cx="344" cy="34" r="19" fill="#eaf3ff"/><text x="344" y="40" text-anchor="middle" font-family="Arial,Helvetica,sans-serif" font-size="16" font-weight="700" fill="#1769e0">02</text><text x="371" y="29" font-family="Arial,Helvetica,sans-serif" font-size="15" font-weight="700" fill="#10264b">POC mesurable</text><text x="371" y="50" font-family="Arial,Helvetica,sans-serif" font-size="12.5" fill="#405a7d">Tester vite avec des KPI définis</text><rect x="335" y="82" width="248" height="88" rx="14" fill="#f2f7fd"/><path stroke="#1769e0" stroke-width="2.4" fill="none" stroke-linecap="round" stroke-linejoin="round" d="M362,105 H376 M366,105 V117 L356,138 Q355,141 360,141 H382 Q386,141 384,137 L373,117 V105"/><path stroke="#1769e0" stroke-width="2.4" fill="none" stroke-linecap="round" stroke-linejoin="round" d="M361,131 H379"/><rect x="413" y="104" width="152" height="8" rx="4" fill="#dceafb"/><rect x="413" y="124" width="132" height="8" rx="4" fill="#c9def7"/><rect x="413" y="144" width="114" height="8" rx="4" fill="#a9cdf5"/><rect x="616" y="8" width="292" height="184" rx="16" fill="#fbfdff" stroke="#dbe7f5"/><circle cx="647" cy="34" r="19" fill="#eaf3ff"/><text x="647" y="40" text-anchor="middle" font-family="Arial,Helvetica,sans-serif" font-size="16" font-weight="700" fill="#1769e0">03</text><text x="674" y="29" font-family="Arial,Helvetica,sans-serif" font-size="15" font-weight="700" fill="#10264b">Go / No-Go</text><text x="674" y="50" font-family="Arial,Helvetica,sans-serif" font-size="12.5" fill="#405a7d">Décider sur la valeur, le risque et</text><text x="674" y="68" font-family="Arial,Helvetica,sans-serif" font-size="12.5" fill="#405a7d">l’effort</text><rect x="638" y="82" width="248" height="88" rx="14" fill="#f2f7fd"/><path stroke="#1769e0" stroke-width="2.4" fill="none" stroke-linecap="round" stroke-linejoin="round" d="M658,141 C661,129 665,120 672,106 M688,141 C685,129 681,120 674,106"/><path stroke="#1769e0" stroke-width="2.4" fill="none" stroke-linecap="round" stroke-linejoin="round" stroke-dasharray="4 5" d="M673,139 V110"/><rect x="716" y="104" width="152" height="8" rx="4" fill="#dceafb"/><rect x="716" y="124" width="132" height="8" rx="4" fill="#c9def7"/><rect x="716" y="144" width="114" height="8" rx="4" fill="#a9cdf5"/></svg>